# This file uses centimeters as units for non-parametric coordinates.

mtllib ArrowPillar.mtl
g default
v 3.449315 0.000000 4.335671
v 3.109265 0.000000 3.668285
v 2.579625 0.000000 3.138645
v 1.912239 0.000000 2.798595
v 1.172436 0.000000 2.681422
v 0.432633 0.000000 2.798595
v -0.234753 0.000000 3.138646
v -0.764393 0.000000 3.668286
v -1.104443 0.000000 4.335672
v -1.221616 0.000000 5.075474
v -1.104443 0.000000 5.815277
v -0.764393 0.000000 6.482662
v -0.234752 0.000000 7.012303
v 0.432633 0.000000 7.352352
v 1.172436 0.000000 7.469526
v 1.912238 0.000000 7.352352
v 2.579624 0.000000 7.012302
v 3.109264 0.000000 6.482662
v 3.449314 0.000000 5.815277
v 3.566487 0.000000 5.075474
v 3.449315 23.548064 4.335671
v 3.109265 23.548064 3.668285
v 2.579625 23.548064 3.138645
v 1.912239 23.548064 2.798595
v 1.172436 23.548064 2.681422
v 0.432633 23.548064 2.798595
v -0.234753 23.548064 3.138646
v -0.764393 23.548064 3.668286
v -1.104443 23.548064 4.335672
v -1.221616 23.548064 5.075474
v -1.104443 23.548064 5.815277
v -0.764393 23.548064 6.482662
v -0.234752 23.548064 7.012303
v 0.432633 23.548064 7.352352
v 1.172436 23.548064 7.469526
v 1.912238 23.548064 7.352352
v 2.579624 23.548064 7.012302
v 3.109264 23.548064 6.482662
v 3.449314 23.548064 5.815277
v 3.566487 23.548064 5.075474
v 1.172436 0.000000 5.075474
v 1.172436 23.548064 5.075474
vt 0.246305 0.947964
vt 0.239942 0.935477
vt 0.230033 0.925567
vt 0.217546 0.919205
vt 0.203704 0.917012
vt 0.189862 0.919205
vt 0.177375 0.925567
vt 0.167465 0.935477
vt 0.161103 0.947964
vt 0.158910 0.961806
vt 0.161103 0.975647
vt 0.167465 0.988134
vt 0.177375 0.998044
vt 0.189862 1.004406
vt 0.203704 1.006599
vt 0.217546 1.004406
vt 0.230033 0.998044
vt 0.239942 0.988134
vt 0.246305 0.975647
vt 0.248497 0.961806
vt 0.333528 0.016141
vt 0.350175 0.016141
vt 0.366822 0.016141
vt 0.383469 0.016141
vt 0.400117 0.016141
vt 0.416764 0.016141
vt 0.433411 0.016141
vt 0.450058 0.016141
vt 0.466705 0.016141
vt 0.483353 0.016141
vt 0.500000 0.016141
vt 0.516647 0.016141
vt 0.533294 0.016141
vt 0.549942 0.016141
vt 0.566589 0.016141
vt 0.583236 0.016141
vt 0.599883 0.016141
vt 0.616530 0.016141
vt 0.633178 0.016141
vt 0.649825 0.016141
vt 0.666472 0.016141
vt 0.333528 0.984799
vt 0.350175 0.984799
vt 0.366822 0.984799
vt 0.383469 0.984799
vt 0.400117 0.984799
vt 0.416764 0.984799
vt 0.433411 0.984799
vt 0.450058 0.984799
vt 0.466705 0.984799
vt 0.483353 0.984799
vt 0.500000 0.984799
vt 0.516647 0.984799
vt 0.533294 0.984799
vt 0.549942 0.984799
vt 0.566589 0.984799
vt 0.583236 0.984799
vt 0.599883 0.984799
vt 0.616530 0.984799
vt 0.633178 0.984799
vt 0.649825 0.984799
vt 0.666472 0.984799
vt 0.141958 0.909578
vt 0.133202 0.892395
vt 0.119565 0.878758
vt 0.102382 0.870002
vt 0.083333 0.866985
vt 0.064285 0.870002
vt 0.047101 0.878758
vt 0.033464 0.892395
vt 0.024709 0.909578
vt 0.021692 0.928627
vt 0.024709 0.947675
vt 0.033464 0.964858
vt 0.047101 0.978495
vt 0.064285 0.987251
vt 0.083333 0.990268
vt 0.102382 0.987251
vt 0.119565 0.978495
vt 0.133202 0.964858
vt 0.141958 0.947675
vt 0.144975 0.928627
vt 0.203704 0.960014
vt 0.083333 0.926161
vn 0.951057 0.000000 -0.309016
vn 0.809017 0.000000 -0.587785
vn 0.809017 0.000000 -0.587785
vn 0.951057 0.000000 -0.309016
vn 0.587785 0.000000 -0.809017
vn 0.587785 0.000000 -0.809017
vn 0.309017 0.000000 -0.951057
vn 0.309017 0.000000 -0.951057
vn -0.000000 0.000000 -1.000000
vn -0.000000 0.000000 -1.000000
vn -0.309017 0.000000 -0.951056
vn -0.309017 0.000000 -0.951056
vn -0.587785 0.000000 -0.809017
vn -0.587785 0.000000 -0.809017
vn -0.809017 0.000000 -0.587785
vn -0.809017 0.000000 -0.587785
vn -0.951057 0.000000 -0.309017
vn -0.951057 0.000000 -0.309017
vn -1.000000 0.000000 0.000000
vn -1.000000 0.000000 0.000000
vn -0.951057 0.000000 0.309017
vn -0.951057 0.000000 0.309017
vn -0.809017 0.000000 0.587785
vn -0.809017 0.000000 0.587785
vn -0.587785 0.000000 0.809017
vn -0.587785 0.000000 0.809017
vn -0.309017 0.000000 0.951057
vn -0.309017 0.000000 0.951057
vn -0.000000 0.000000 1.000000
vn -0.000000 0.000000 1.000000
vn 0.309017 0.000000 0.951057
vn 0.309017 0.000000 0.951057
vn 0.587785 0.000000 0.809017
vn 0.587785 0.000000 0.809017
vn 0.809017 0.000000 0.587785
vn 0.809017 0.000000 0.587785
vn 0.951057 0.000000 0.309017
vn 0.951057 0.000000 0.309017
vn 1.000000 0.000000 0.000001
vn 1.000000 0.000000 0.000001
vn 0.000000 -1.000000 0.000001
vn 0.000000 -1.000000 -0.000001
vn 0.000000 -1.000000 -0.000000
vn 0.000000 -1.000000 0.000001
vn 0.000000 -1.000000 -0.000001
vn 0.000000 -1.000000 0.000000
vn 0.000000 -1.000000 0.000000
vn 0.000000 -1.000000 0.000000
vn 0.000000 -1.000000 0.000000
vn 0.000000 -1.000000 0.000000
vn 0.000000 -1.000000 0.000000
vn 0.000000 -1.000000 0.000000
vn 0.000000 -1.000000 0.000000
vn 0.000000 -1.000000 -0.000001
vn 0.000000 -1.000000 -0.000000
vn 0.000000 -1.000000 0.000000
vn 0.000000 -1.000000 0.000000
vn 0.000000 -1.000000 -0.000001
vn 0.000000 -1.000000 -0.000000
vn 0.000000 -1.000000 0.000001
vn 0.000000 -1.000000 -0.000001
vn 0.000000 1.000000 -0.000001
vn 0.000000 1.000000 0.000001
vn 0.000000 1.000000 0.000000
vn 0.000000 1.000000 0.000001
vn 0.000000 1.000000 0.000000
vn 0.000000 1.000000 0.000000
vn 0.000000 1.000000 -0.000001
vn 0.000000 1.000000 -0.000001
vn 0.000000 1.000000 0.000000
vn 0.000000 1.000000 0.000000
vn 0.000000 1.000000 0.000000
vn 0.000000 1.000000 0.000000
vn 0.000000 1.000000 0.000000
vn 0.000000 1.000000 0.000000
vn 0.000000 1.000000 0.000000
vn 0.000000 1.000000 -0.000000
vn 0.000000 1.000000 -0.000000
vn 0.000000 1.000000 0.000000
vn 0.000000 1.000000 0.000001
vn 0.000000 1.000000 0.000001
vn 0.000000 1.000000 -0.000001
s 1
g pCylinder1
usemtl initialShadingGroup
f 1/21/1 2/22/2 22/43/3 21/42/4
f 2/22/2 3/23/5 23/44/6 22/43/3
f 3/23/5 4/24/7 24/45/8 23/44/6
f 4/24/7 5/25/9 25/46/10 24/45/8
f 5/25/9 6/26/11 26/47/12 25/46/10
f 6/26/11 7/27/13 27/48/14 26/47/12
f 7/27/13 8/28/15 28/49/16 27/48/14
f 8/28/15 9/29/17 29/50/18 28/49/16
f 9/29/17 10/30/19 30/51/20 29/50/18
f 10/30/19 11/31/21 31/52/22 30/51/20
f 11/31/21 12/32/23 32/53/24 31/52/22
f 12/32/23 13/33/25 33/54/26 32/53/24
f 13/33/25 14/34/27 34/55/28 33/54/26
f 14/34/27 15/35/29 35/56/30 34/55/28
f 15/35/29 16/36/31 36/57/32 35/56/30
f 16/36/31 17/37/33 37/58/34 36/57/32
f 17/37/33 18/38/35 38/59/36 37/58/34
f 18/38/35 19/39/37 39/60/38 38/59/36
f 19/39/37 20/40/39 40/61/40 39/60/38
f 20/40/39 1/41/1 21/62/4 40/61/40
s 2
f 2/2/41 1/1/42 41/83/43
f 3/3/44 2/2/41 41/83/43
f 4/4/45 3/3/44 41/83/43
f 5/5/46 4/4/45 41/83/43
f 6/6/47 5/5/46 41/83/43
f 7/7/48 6/6/47 41/83/43
f 8/8/49 7/7/48 41/83/43
f 9/9/50 8/8/49 41/83/43
f 10/10/51 9/9/50 41/83/43
f 11/11/52 10/10/51 41/83/43
f 12/12/53 11/11/52 41/83/43
f 13/13/54 12/12/53 41/83/43
f 14/14/55 13/13/54 41/83/43
f 15/15/56 14/14/55 41/83/43
f 16/16/57 15/15/56 41/83/43
f 17/17/58 16/16/57 41/83/43
f 18/18/59 17/17/58 41/83/43
f 19/19/60 18/18/59 41/83/43
f 20/20/61 19/19/60 41/83/43
f 1/1/42 20/20/61 41/83/43
s 3
f 21/81/62 22/80/63 42/84/64
f 22/80/63 23/79/65 42/84/64
f 23/79/65 24/78/66 42/84/64
f 24/78/66 25/77/67 42/84/64
f 25/77/67 26/76/68 42/84/64
f 26/76/68 27/75/69 42/84/64
f 27/75/69 28/74/70 42/84/64
f 28/74/70 29/73/71 42/84/64
f 29/73/71 30/72/72 42/84/64
f 30/72/72 31/71/73 42/84/64
f 31/71/73 32/70/74 42/84/64
f 32/70/74 33/69/75 42/84/64
f 33/69/75 34/68/76 42/84/64
f 34/68/76 35/67/77 42/84/64
f 35/67/77 36/66/78 42/84/64
f 36/66/78 37/65/79 42/84/64
f 37/65/79 38/64/80 42/84/64
f 38/64/80 39/63/81 42/84/64
f 39/63/81 40/82/82 42/84/64
f 40/82/82 21/81/62 42/84/64
